<?xml version="1.0" encoding="UTF-8" standalone="no"?>
<svg xmlns="http://www.w3.org/2000/svg" xml:space="preserve" width="913.46741" height="1080" viewBox="0 0 913.46736 1080">
  <g fill-rule="evenodd" clip-rule="evenodd">
    <path d="M640.5898.000058c5.2196 2.096541 10.8384 1.810255 16.2634 2.640196 79.6512 12.177287 159.4816 67.786225 186.6094 154.877981 22.1308 71.05104 14.6122 139.29995-28.3307 201.239-35.1207 50.64953-84.7032 80.89465-144.3288 95.06149-16.7174 3.9733-33.75 5.39895-50.9127 5.39895-71.9301-.003-143.8603-.0174-215.7904.0173-9.326.006-8.1953-1.20587-8.1982 8.00156-.032 81.41229-.029 162.82459 0 244.23688 0 6.77544-.8444 13.35714-3.34 19.69014-4.8091 12.19752-13.4844 19.58024-26.6044 21.51484-13.308 1.96063-25.4448-.16483-34.8662-10.61283-6.4487-7.15427-9.0253-16.00022-9.6701-25.44478-.2198-3.22144-.075-6.4718-.075-9.7106V83.826939c0-9.097541 0-8.970302-9.2248-9.138026-9.2334-.167723-18.4842.688244-27.7032-.662217-13.4815-1.975086-21.6248-9.733733-24.7305-22.7987975-2.1689-9.1235673-2.1226-18.3801565-.084-27.5123995 2.5881-11.587364 9.5168-19.285283 21.217-22.324545 1.096-.283394 2.3134-.297853 3.0392-1.388054C402.7727 0 521.6828 0 640.5899 0z"/>
    <path d="M631.9121 458.773325c.4627-1.78134 1.7496-1.91725 2.7617-2.22089 34.2734-10.25425 64.2177-28.19197 90.8742-51.73105 4.4186-3.90391 8.0218-4.71071 13.4786-2.59104 59.3971 23.05905 107.7564 59.62562 140.6099 114.98586 17.2148 29.00745 27.5789 60.52208 31.237 94.04359 6.093 55.86053 1.7409 110.89111-16.1303 164.32254-23.4755 70.18351-71.3027 116.95516-140.2167 142.73249-28.9351 10.82105-58.9085 17.25815-89.5006 21.14181-31.2544 3.96752-62.6417 5.23991-94.113 5.23702-129.9913-.0173-259.9826-.214-389.9739.1041-47.0898.11567-88.1646 16.85619-122.5248 49.03014-18.5768 17.39406-32.0756 38.77299-43.9782 61.12063-4.3319 8.1317-8.2068 16.5034-12.4317 25.0515-1.5211-1.0988-1.5124-2.6922-1.5934-4.1526-2.5274-45.44429 6.3735-88.16457 33.1456-125.58131 32.5325-45.46168 76.0798-74.11344 132.218-82.07162 13.548-1.92015 27.148-2.4985 40.8001-2.49272 139.2421.0521 278.4871.16483 417.7293.0694 33.7586-.0202 66.8463-4.70781 98.5027-17.05283 53.9056-21.02902 87.8899-60.12879 102.4442-115.71459 11.7175-44.74741 13.5133-90.04137 1.3967-135.08085-12.4578-46.30608-40.615-80.86864-81.6928-105.06706-30.0947-17.72661-62.8384-27.76976-97.2939-32.61639-5.1908-.72873-10.3729-1.49505-15.7487-1.46613z"/>
    <path fill="#fff" d="M395.896 229.367405V81.577184c0-8.247358-.48-7.605382 7.3856-7.605382 73.3182-.0029 146.6335-.135914 219.9488.03759 69.5676.167723 131.7495 45.797128 151.0261 111.533083 25.9885 88.62729-27.5442 176.47958-117.5017 196.15814-10.4335 2.28451-20.9972 3.19542-31.6679 3.19253-74.0093-.0202-148.0215-.009-222.0309-.009-1.1567 0-2.3192-.081-3.4672.003-2.6026.18797-3.8663-.85018-3.6957-3.57134.1157-1.84207 0-3.69859 0-5.54933v-146.39928zm-1729.1015 421.17622c0-2.872-.017-5.745.006-8.617.014-1.746.043-1.816 1.673-1.791 4.384.068 8.775-.257 13.153.246 1.28.147 2.505.453 3.695.931 3.571 1.434 5.679 3.993 6.057 7.881.397 4.086-.953 7.367-4.465 9.639-2.278 1.473-4.844 2.081-7.497 2.159-3.667.108-7.341-.015-11.01.056-1.262.024-1.661-.413-1.633-1.646.066-2.952.021-5.906.021-8.858z"/>
  </g>
</svg>